FootBody_states
version=1
nRows=71
nColumns=9
inDegrees=yes

# SIMM Motion File Header:
name FootBody_states
datacolumns 9
datarows 71
otherdata 1
range 0.00000000 0.42504860
endheader
time	/jointset/FootToGround/ground_rz/value	/jointset/FootToGround/ground_rz/speed	/jointset/FootToGround/ground_ty/value	/jointset/FootToGround/ground_ty/speed	/jointset/FootToGround/ground_tz/value	/jointset/FootToGround/ground_tz/speed	/jointset/Ankle/Ankle_Angle/value	/jointset/Ankle/Ankle_Angle/speed
      0.00000000	      0.00000000	      0.00000000	      0.04000000	      0.00000000	      0.00000000	      0.00000000	     -1.00000000	      0.00000000
      0.00105655	      0.00345114	      6.24221808	      0.04001033	      0.01909082	      0.00000000	      0.00000000	     -1.00389473	     -7.03358687
      0.00290642	      0.02247317	     13.70172861	      0.04007230	      0.04688004	      0.00000000	      0.00000000	     -1.02522517	    -15.30332692
      0.00475630	      0.05231911	     18.17542172	      0.04018066	      0.06957852	      0.00000000	      0.00000000	     -1.05838828	    -20.09643121
      0.00660617	      0.08856933	     20.77049540	      0.04032759	      0.08878519	      0.00000000	      0.00000000	     -1.09824314	    -22.70740270
      0.00845604	      0.12844063	     22.18116844	      0.04050761	      0.10549107	      0.00000000	      0.00000000	     -1.14156231	    -23.94806719
      0.01097672	      0.18554097	     22.95486382	      0.04079911	      0.12529475	      0.00000000	      0.00000000	     -1.20263963	    -24.31932558
      0.01349740	      0.24353647	     22.96934297	      0.04113706	      0.14246241	      0.00000000	      0.00000000	     -1.26345354	    -23.83017346
      0.01668374	      0.31597549	     22.42545415	      0.04162153	      0.16109373	      0.00000000	      0.00000000	     -1.33753996	    -22.59336945
      0.01987007	      0.38612583	     21.57253536	      0.04216047	      0.17671358	      0.00000000	      0.00000000	     -1.40710417	    -21.03801245
      0.02541230	      0.50088050	     19.80422709	      0.04320070	      0.19731974	      0.00000000	      0.00000000	     -1.51561014	    -18.09854148
      0.02986513	      0.58575222	     18.31461699	      0.04410534	      0.20818309	      0.00000000	      0.00000000	     -1.59093195	    -15.74315588
      0.03431795	      0.66401632	     16.84433267	      0.04504759	      0.21425159	      0.00000000	      0.00000000	     -1.65595875	    -13.48300731
      0.03877077	      0.73584624	     15.42916726	      0.04600668	      0.21580080	      0.00000000	      0.00000000	     -1.71120605	    -11.35505938
      0.04322360	      0.80153873	     14.09059257	      0.04696318	      0.21313940	      0.00000000	      0.00000000	     -1.75731102	     -9.37921024
      0.04767642	      0.86146875	     12.84295046	      0.04789908	      0.20660596	      0.00000000	      0.00000000	     -1.79497860	     -7.56682112
      0.05212924	      0.91606469	     11.69617736	      0.04879793	      0.19656167	      0.00000000	      0.00000000	     -1.82495186	     -5.92400047
      0.05658207	      0.96579170	     10.65697420	      0.04964494	      0.18338299	      0.00000000	      0.00000000	     -1.84799225	     -4.45305540
      0.06103489	      1.01113878	      9.72944725	      0.05042700	      0.16745534	      0.00000000	      0.00000000	     -1.86486457	     -3.15331113
      0.06645585	      1.06116169	      8.75362650	      0.05127510	      0.14491794	      0.00000000	      0.00000000	     -1.87817401	     -1.79737551
      0.07187682	      1.10635245	      7.94653693	      0.05199314	      0.11958694	      0.00000000	      0.00000000	     -1.88478857	     -0.68161298
      0.07729778	      1.14761924	      7.30530557	      0.05256787	      0.09216000	      0.00000000	      0.00000000	     -1.88597812	      0.20628729
      0.08271875	      1.18584724	      6.82435887	      0.05298979	      0.06332484	      0.00000000	      0.00000000	     -1.88293852	      0.88127104
      0.08958483	      1.23122604	      6.43274580	      0.05329618	      0.02583727	      0.00000000	      0.00000000	     -1.87474184	      1.45738650
      0.09645092	      1.27470506	      6.26875417	      0.05334502	     -0.01146562	      0.00000000	      0.00000000	     -1.86356764	      1.75351056
      0.10552995	      1.33185805	      6.38491498	      0.05302563	     -0.05816502	      0.00000000	      0.00000000	     -1.84730303	      1.75761733
      0.11460898	      1.39180927	      6.88808774	      0.05230710	     -0.09883169	      0.00000000	      0.00000000	     -1.83292158	      1.34074179
      0.12107489	      1.43820248	      7.49670551	      0.05158945	     -0.12225343	      0.00000000	      0.00000000	     -1.82592611	      0.78903425
      0.12754080	      1.48920826	      8.31281515	      0.05073890	     -0.13976551	      0.00000000	      0.00000000	     -1.82314993	      0.03992597
      0.13330042	      1.53957243	      9.19783991	      0.04990279	     -0.14961873	      0.00000000	      0.00000000	     -1.82518833	     -0.76552143
      0.13906005	      1.59538821	     10.19932786	      0.04902674	     -0.15358005	      0.00000000	      0.00000000	     -1.83213908	     -1.65754711
      0.14481967	      1.65720013	     11.27126109	      0.04814537	     -0.15146218	      0.00000000	      0.00000000	     -1.84434434	     -2.57978211
      0.15057929	      1.72525289	     12.35632319	      0.04729348	     -0.14338629	      0.00000000	      0.00000000	     -1.86179043	     -3.46601313
      0.15633891	      1.79944198	     13.39165763	      0.04650428	     -0.12979460	      0.00000000	      0.00000000	     -1.88407028	     -4.24713279
      0.16332552	      1.89697749	     14.49320393	      0.04567352	     -0.10698843	      0.00000000	      0.00000000	     -1.91641712	     -4.96252925
      0.17031214	      2.00136610	     15.34103152	      0.04502151	     -0.07895459	      0.00000000	      0.00000000	     -1.95262997	     -5.34287833
      0.17852527	      2.13011694	     15.93579947	      0.04452241	     -0.04215541	      0.00000000	      0.00000000	     -1.99670761	     -5.30174748
      0.18673840	      2.26186198	     16.07095546	      0.04433130	     -0.00452165	      0.00000000	      0.00000000	     -2.03827787	     -4.73935238
      0.19456613	      2.38685104	     15.80439530	      0.04443013	      0.02921935	      0.00000000	      0.00000000	     -2.07188468	     -3.78729877
      0.20116646	      2.48971456	     15.33101156	      0.04470804	      0.05438826	      0.00000000	      0.00000000	     -2.09354796	     -2.74655213
      0.20776678	      2.58885443	     14.68484334	      0.04513918	      0.07551862	      0.00000000	      0.00000000	     -2.10783127	     -1.56262576
      0.21353788	      2.67172388	     14.02127144	      0.04561911	      0.09018552	      0.00000000	      0.00000000	     -2.11370083	     -0.46518138
      0.21930898	      2.75058686	     13.30188444	      0.04617281	      0.10105708	      0.00000000	      0.00000000	     -2.11317791	      0.64614589
      0.22508008	      2.82521401	     12.55819869	      0.04677811	      0.10806995	      0.00000000	      0.00000000	     -2.10629145	      1.73459840
      0.23085119	      2.89554596	     11.81752589	      0.04741289	      0.11129790	      0.00000000	      0.00000000	     -2.09326381	      2.76992076
      0.23662229	      2.96166837	     11.10284326	      0.04805581	      0.11092877	      0.00000000	      0.00000000	     -2.07447340	      3.72824947
      0.24239339	      3.02378774	     10.43309874	      0.04868687	      0.10724315	      0.00000000	      0.00000000	     -2.05041924	      4.59152033
      0.24816449	      3.08220936	      9.82364874	      0.04928793	      0.10059544	      0.00000000	      0.00000000	     -2.02168974	      5.34674956
      0.25393559	      3.13731718	      9.28632803	      0.04984306	      0.09139600	      0.00000000	      0.00000000	     -1.98893442	      5.98574194
      0.25970670	      3.18955167	      8.82870996	      0.05033880	      0.08009250	      0.00000000	      0.00000000	     -1.95283510	      6.50568356
      0.26547780	      3.23938129	      8.45270971	      0.05076435	      0.06714949	      0.00000000	      0.00000000	     -1.91407116	      6.91040111
      0.27124890	      3.28726643	      8.15356110	      0.05111159	      0.05302868	      0.00000000	      0.00000000	     -1.87327850	      7.21112592
      0.27702000	      3.33362162	      7.92042075	      0.05137502	      0.03817420	      0.00000000	      0.00000000	     -1.83100887	      7.42542507
      0.28279110	      3.37878707	      7.73888025	      0.05155161	      0.02300611	      0.00000000	      0.00000000	     -1.78770155	      7.57410002
      0.28856221	      3.42301781	      7.59435201	      0.05164072	      0.00792115	      0.00000000	      0.00000000	     -1.74367597	      7.67729491
      0.29623317	      3.48065947	      7.43955977	      0.05162676	     -0.01135560	      0.00000000	      0.00000000	     -1.68439986	      7.77157681
      0.30390413	      3.53722937	      7.31380946	      0.05147074	     -0.02897885	      0.00000000	      0.00000000	     -1.62451831	      7.83724664
      0.31420321	      3.61186026	      7.18927370	      0.05106636	     -0.04866595	      0.00000000	      0.00000000	     -1.54348534	      7.89084299
      0.32450229	      3.68557220	      7.14060460	      0.05048927	     -0.06226508	      0.00000000	      0.00000000	     -1.46216910	      7.88876197
      0.33223772	      3.74091106	      7.17863473	      0.04998386	     -0.06768150	      0.00000000	      0.00000000	     -1.40133519	      7.83189242
      0.33997316	      3.79683026	      7.29086688	      0.04945373	     -0.06863161	      0.00000000	      0.00000000	     -1.34114394	      7.72339904
      0.34770859	      3.85389444	      7.47246515	      0.04893367	     -0.06510272	      0.00000000	      0.00000000	     -1.28196245	      7.57398899
      0.35544403	      3.91257141	      7.70367858	      0.04845733	     -0.05740260	      0.00000000	      0.00000000	     -1.22401772	      7.40847570
      0.36317947	      3.97313361	      7.95476800	      0.04805480	     -0.04614823	      0.00000000	      0.00000000	     -1.16731056	      7.25926216
      0.37091490	      4.03560910	      8.19344858	      0.04775033	     -0.03220845	      0.00000000	      0.00000000	     -1.11159014	      7.15775258
      0.38151104	      4.12388309	      8.45084415	      0.04752178	     -0.01064447	      0.00000000	      0.00000000	     -1.03599261	      7.13633917
      0.39628922	      4.25027303	      8.61348051	      0.04759021	      0.01943873	      0.00000000	      0.00000000	     -0.92925049	      7.35563153
      0.40401630	      4.31685631	      8.61135063	      0.04779499	      0.03323775	      0.00000000	      0.00000000	     -0.87165532	      7.55953899
      0.41174338	      4.38325408	      8.56886664	      0.04809813	      0.04481205	      0.00000000	      0.00000000	     -0.81235528	      7.79203558
      0.41839599	      4.44009914	      8.51983689	      0.04842355	      0.05268074	      0.00000000	      0.00000000	     -0.75985645	      7.98910530
      0.42504860	      4.49663443	      8.47876989	      0.04879446	      0.05848158	      0.00000000	      0.00000000	     -0.70612092	      8.16045405
